solid OpenSCAD_Model
  facet normal 0.998027 0.0627918 0
    outer loop
      vertex 4 0 7.2
      vertex 3.96846 0.501332 0
      vertex 3.96846 0.501332 7.2
    endloop
  endfacet
  facet normal 0.998027 0.0627918 0
    outer loop
      vertex 3.96846 0.501332 0
      vertex 4 0 7.2
      vertex 4 0 0
    endloop
  endfacet
  facet normal -0.998027 0.0627918 0
    outer loop
      vertex -4 0 0
      vertex -3.96846 0.501332 7.2
      vertex -3.96846 0.501332 0
    endloop
  endfacet
  facet normal -0.998027 0.0627918 0
    outer loop
      vertex -3.96846 0.501332 7.2
      vertex -4 0 0
      vertex -4 0 7.2
    endloop
  endfacet
  facet normal 0 1 -0
    outer loop
      vertex 0.251162 3.99211 0
      vertex -0.251162 3.99211 7.2
      vertex 0.251162 3.99211 7.2
    endloop
  endfacet
  facet normal 0 1 0
    outer loop
      vertex -0.251162 3.99211 7.2
      vertex 0.251162 3.99211 0
      vertex -0.251162 3.99211 0
    endloop
  endfacet
  facet normal 0 -1 0
    outer loop
      vertex -0.251162 -3.99211 0
      vertex 0.251162 -3.99211 7.2
      vertex -0.251162 -3.99211 7.2
    endloop
  endfacet
  facet normal 0 -1 -0
    outer loop
      vertex 0.251162 -3.99211 7.2
      vertex -0.251162 -3.99211 0
      vertex 0.251162 -3.99211 0
    endloop
  endfacet
  facet normal 0.684546 0.72897 -0
    outer loop
      vertex 2.91587 2.73819 0
      vertex 2.5497 3.08205 7.2
      vertex 2.91587 2.73819 7.2
    endloop
  endfacet
  facet normal 0.684546 0.72897 0
    outer loop
      vertex 2.5497 3.08205 7.2
      vertex 2.91587 2.73819 0
      vertex 2.5497 3.08205 0
    endloop
  endfacet
  facet normal -0.684546 0.72897 0
    outer loop
      vertex -2.5497 3.08205 0
      vertex -2.91587 2.73819 7.2
      vertex -2.5497 3.08205 7.2
    endloop
  endfacet
  facet normal -0.684546 0.72897 0
    outer loop
      vertex -2.91587 2.73819 7.2
      vertex -2.5497 3.08205 0
      vertex -2.91587 2.73819 0
    endloop
  endfacet
  facet normal -0.368126 0.929776 0
    outer loop
      vertex -1.23607 3.80423 0
      vertex -1.70312 3.61931 7.2
      vertex -1.23607 3.80423 7.2
    endloop
  endfacet
  facet normal -0.368126 0.929776 0
    outer loop
      vertex -1.70312 3.61931 7.2
      vertex -1.23607 3.80423 0
      vertex -1.70312 3.61931 0
    endloop
  endfacet
  facet normal 0.904827 -0.42578 0
    outer loop
      vertex 3.50523 -1.92701 7.2
      vertex 3.71911 -1.4725 0
      vertex 3.71911 -1.4725 7.2
    endloop
  endfacet
  facet normal 0.904827 -0.42578 0
    outer loop
      vertex 3.71911 -1.4725 0
      vertex 3.50523 -1.92701 7.2
      vertex 3.50523 -1.92701 0
    endloop
  endfacet
  facet normal 0.904827 0.42578 0
    outer loop
      vertex 3.71911 1.4725 7.2
      vertex 3.50523 1.92701 0
      vertex 3.50523 1.92701 7.2
    endloop
  endfacet
  facet normal 0.904827 0.42578 0
    outer loop
      vertex 3.50523 1.92701 0
      vertex 3.71911 1.4725 7.2
      vertex 3.71911 1.4725 0
    endloop
  endfacet
  facet normal 0.844328 0.535826 0
    outer loop
      vertex 3.50523 1.92701 7.2
      vertex 3.23607 2.35114 0
      vertex 3.23607 2.35114 7.2
    endloop
  endfacet
  facet normal 0.844328 0.535826 0
    outer loop
      vertex 3.23607 2.35114 0
      vertex 3.50523 1.92701 7.2
      vertex 3.50523 1.92701 0
    endloop
  endfacet
  facet normal 0.368126 0.929776 -0
    outer loop
      vertex 1.70312 3.61931 0
      vertex 1.23607 3.80423 7.2
      vertex 1.70312 3.61931 7.2
    endloop
  endfacet
  facet normal 0.368126 0.929776 0
    outer loop
      vertex 1.23607 3.80423 7.2
      vertex 1.70312 3.61931 0
      vertex 1.23607 3.80423 0
    endloop
  endfacet
  facet normal 0.24869 0.968583 -0
    outer loop
      vertex 1.23607 3.80423 0
      vertex 0.749525 3.92915 7.2
      vertex 1.23607 3.80423 7.2
    endloop
  endfacet
  facet normal 0.24869 0.968583 0
    outer loop
      vertex 0.749525 3.92915 7.2
      vertex 1.23607 3.80423 0
      vertex 0.749525 3.92915 0
    endloop
  endfacet
  facet normal 0.587785 0.809017 -0
    outer loop
      vertex 2.5497 3.08205 0
      vertex 2.14331 3.37731 7.2
      vertex 2.5497 3.08205 7.2
    endloop
  endfacet
  facet normal 0.587785 0.809017 0
    outer loop
      vertex 2.14331 3.37731 7.2
      vertex 2.5497 3.08205 0
      vertex 2.14331 3.37731 0
    endloop
  endfacet
  facet normal -0.904827 0.42578 0
    outer loop
      vertex -3.71911 1.4725 0
      vertex -3.50523 1.92701 7.2
      vertex -3.50523 1.92701 0
    endloop
  endfacet
  facet normal -0.904827 0.42578 0
    outer loop
      vertex -3.50523 1.92701 7.2
      vertex -3.71911 1.4725 0
      vertex -3.71911 1.4725 7.2
    endloop
  endfacet
  facet normal -0.770513 0.637424 0
    outer loop
      vertex -3.23607 2.35114 0
      vertex -2.91587 2.73819 7.2
      vertex -2.91587 2.73819 0
    endloop
  endfacet
  facet normal -0.770513 0.637424 0
    outer loop
      vertex -2.91587 2.73819 7.2
      vertex -3.23607 2.35114 0
      vertex -3.23607 2.35114 7.2
    endloop
  endfacet
  facet normal -0.951057 0.309017 0
    outer loop
      vertex -3.87433 0.994759 0
      vertex -3.71911 1.4725 7.2
      vertex -3.71911 1.4725 0
    endloop
  endfacet
  facet normal -0.951057 0.309017 0
    outer loop
      vertex -3.71911 1.4725 7.2
      vertex -3.87433 0.994759 0
      vertex -3.87433 0.994759 7.2
    endloop
  endfacet
  facet normal -0.481754 0.876307 0
    outer loop
      vertex -1.70312 3.61931 0
      vertex -2.14331 3.37731 7.2
      vertex -1.70312 3.61931 7.2
    endloop
  endfacet
  facet normal -0.481754 0.876307 0
    outer loop
      vertex -2.14331 3.37731 7.2
      vertex -1.70312 3.61931 0
      vertex -2.14331 3.37731 0
    endloop
  endfacet
  facet normal -0.24869 0.968583 0
    outer loop
      vertex -0.749525 3.92915 0
      vertex -1.23607 3.80423 7.2
      vertex -0.749525 3.92915 7.2
    endloop
  endfacet
  facet normal -0.24869 0.968583 0
    outer loop
      vertex -1.23607 3.80423 7.2
      vertex -0.749525 3.92915 0
      vertex -1.23607 3.80423 0
    endloop
  endfacet
  facet normal 0.125333 -0.992115 0
    outer loop
      vertex 0.251162 -3.99211 0
      vertex 0.749525 -3.92915 7.2
      vertex 0.251162 -3.99211 7.2
    endloop
  endfacet
  facet normal 0.125333 -0.992115 0
    outer loop
      vertex 0.749525 -3.92915 7.2
      vertex 0.251162 -3.99211 0
      vertex 0.749525 -3.92915 0
    endloop
  endfacet
  facet normal 0.368126 -0.929776 0
    outer loop
      vertex 1.23607 -3.80423 0
      vertex 1.70312 -3.61931 7.2
      vertex 1.23607 -3.80423 7.2
    endloop
  endfacet
  facet normal 0.368126 -0.929776 0
    outer loop
      vertex 1.70312 -3.61931 7.2
      vertex 1.23607 -3.80423 0
      vertex 1.70312 -3.61931 0
    endloop
  endfacet
  facet normal 0.951057 0.309017 0
    outer loop
      vertex 3.87433 0.994759 7.2
      vertex 3.71911 1.4725 0
      vertex 3.71911 1.4725 7.2
    endloop
  endfacet
  facet normal 0.951057 0.309017 0
    outer loop
      vertex 3.71911 1.4725 0
      vertex 3.87433 0.994759 7.2
      vertex 3.87433 0.994759 0
    endloop
  endfacet
  facet normal 0.982287 0.187381 0
    outer loop
      vertex 3.96846 0.501332 7.2
      vertex 3.87433 0.994759 0
      vertex 3.87433 0.994759 7.2
    endloop
  endfacet
  facet normal 0.982287 0.187381 0
    outer loop
      vertex 3.87433 0.994759 0
      vertex 3.96846 0.501332 7.2
      vertex 3.96846 0.501332 0
    endloop
  endfacet
  facet normal 0.770513 0.637424 0
    outer loop
      vertex 3.23607 2.35114 7.2
      vertex 2.91587 2.73819 0
      vertex 2.91587 2.73819 7.2
    endloop
  endfacet
  facet normal 0.770513 0.637424 0
    outer loop
      vertex 2.91587 2.73819 0
      vertex 3.23607 2.35114 7.2
      vertex 3.23607 2.35114 0
    endloop
  endfacet
  facet normal 0.125333 0.992115 -0
    outer loop
      vertex 0.749525 3.92915 0
      vertex 0.251162 3.99211 7.2
      vertex 0.749525 3.92915 7.2
    endloop
  endfacet
  facet normal 0.125333 0.992115 0
    outer loop
      vertex 0.251162 3.99211 7.2
      vertex 0.749525 3.92915 0
      vertex 0.251162 3.99211 0
    endloop
  endfacet
  facet normal 0.481754 0.876307 -0
    outer loop
      vertex 2.14331 3.37731 0
      vertex 1.70312 3.61931 7.2
      vertex 2.14331 3.37731 7.2
    endloop
  endfacet
  facet normal 0.481754 0.876307 0
    outer loop
      vertex 1.70312 3.61931 7.2
      vertex 2.14331 3.37731 0
      vertex 1.70312 3.61931 0
    endloop
  endfacet
  facet normal -0.844328 0.535826 0
    outer loop
      vertex -3.50523 1.92701 0
      vertex -3.23607 2.35114 7.2
      vertex -3.23607 2.35114 0
    endloop
  endfacet
  facet normal -0.844328 0.535826 0
    outer loop
      vertex -3.23607 2.35114 7.2
      vertex -3.50523 1.92701 0
      vertex -3.50523 1.92701 7.2
    endloop
  endfacet
  facet normal -0.982287 0.187381 0
    outer loop
      vertex -3.96846 0.501332 0
      vertex -3.87433 0.994759 7.2
      vertex -3.87433 0.994759 0
    endloop
  endfacet
  facet normal -0.982287 0.187381 0
    outer loop
      vertex -3.87433 0.994759 7.2
      vertex -3.96846 0.501332 0
      vertex -3.96846 0.501332 7.2
    endloop
  endfacet
  facet normal 0 0 1
    outer loop
      vertex 2 0 7.2
      vertex 4 0 7.2
      vertex 3.96846 0.501332 7.2
    endloop
  endfacet
  facet normal 0 0 1
    outer loop
      vertex 2 0 7.2
      vertex 3.96846 0.501332 7.2
      vertex 3.87433 0.994759 7.2
    endloop
  endfacet
  facet normal 0 0 1
    outer loop
      vertex 4 0 7.2
      vertex 2 0 7.2
      vertex 3.96846 -0.501332 7.2
    endloop
  endfacet
  facet normal 0 0 1
    outer loop
      vertex 2 0 7.2
      vertex 3.87433 0.994759 7.2
      vertex 3.71911 1.4725 7.2
    endloop
  endfacet
  facet normal 0 0 1
    outer loop
      vertex 3.96846 -0.501332 7.2
      vertex 2 0 7.2
      vertex 3.87433 -0.994759 7.2
    endloop
  endfacet
  facet normal 0 0 1
    outer loop
      vertex 2 0 7.2
      vertex 3.71911 1.4725 7.2
      vertex 3.50523 1.92701 7.2
    endloop
  endfacet
  facet normal 0 0 1
    outer loop
      vertex 3.87433 -0.994759 7.2
      vertex 2 0 7.2
      vertex 3.71911 -1.4725 7.2
    endloop
  endfacet
  facet normal 0 0 1
    outer loop
      vertex 1.24698 1.56366 7.2
      vertex 3.50523 1.92701 7.2
      vertex 3.23607 2.35114 7.2
    endloop
  endfacet
  facet normal 0 0 1
    outer loop
      vertex 3.71911 -1.4725 7.2
      vertex 2 0 7.2
      vertex 3.50523 -1.92701 7.2
    endloop
  endfacet
  facet normal 0 0 1
    outer loop
      vertex 1.24698 1.56366 7.2
      vertex 3.23607 2.35114 7.2
      vertex 2.91587 2.73819 7.2
    endloop
  endfacet
  facet normal -0 0 1
    outer loop
      vertex 1.24698 -1.56366 7.2
      vertex 3.50523 -1.92701 7.2
      vertex 2 0 7.2
    endloop
  endfacet
  facet normal 0 0 1
    outer loop
      vertex 1.24698 1.56366 7.2
      vertex 2.91587 2.73819 7.2
      vertex 2.5497 3.08205 7.2
    endloop
  endfacet
  facet normal 0 0 1
    outer loop
      vertex 3.50523 -1.92701 7.2
      vertex 1.24698 -1.56366 7.2
      vertex 3.23607 -2.35114 7.2
    endloop
  endfacet
  facet normal 0 0 1
    outer loop
      vertex 1.24698 1.56366 7.2
      vertex 2.5497 3.08205 7.2
      vertex 2.14331 3.37731 7.2
    endloop
  endfacet
  facet normal 0 0 1
    outer loop
      vertex 3.23607 -2.35114 7.2
      vertex 1.24698 -1.56366 7.2
      vertex 2.91587 -2.73819 7.2
    endloop
  endfacet
  facet normal 0 0 1
    outer loop
      vertex 2.91587 -2.73819 7.2
      vertex 1.24698 -1.56366 7.2
      vertex 2.5497 -3.08205 7.2
    endloop
  endfacet
  facet normal 0 0 1
    outer loop
      vertex 1.24698 1.56366 7.2
      vertex 2.14331 3.37731 7.2
      vertex 1.70312 3.61931 7.2
    endloop
  endfacet
  facet normal 0 0 1
    outer loop
      vertex 3.50523 1.92701 7.2
      vertex 1.24698 1.56366 7.2
      vertex 2 0 7.2
    endloop
  endfacet
  facet normal 0 0 1
    outer loop
      vertex 1.23607 3.80423 7.2
      vertex 1.24698 1.56366 7.2
      vertex 1.70312 3.61931 7.2
    endloop
  endfacet
  facet normal 0 0 1
    outer loop
      vertex 0.749525 3.92915 7.2
      vertex 1.24698 1.56366 7.2
      vertex 1.23607 3.80423 7.2
    endloop
  endfacet
  facet normal 0 0 1
    outer loop
      vertex -0.445042 1.94986 7.2
      vertex 0.749525 3.92915 7.2
      vertex 0.251162 3.99211 7.2
    endloop
  endfacet
  facet normal 0 0 1
    outer loop
      vertex -0.445042 1.94986 7.2
      vertex 0.251162 3.99211 7.2
      vertex -0.251162 3.99211 7.2
    endloop
  endfacet
  facet normal 0 0 1
    outer loop
      vertex 0.749525 3.92915 7.2
      vertex -0.445042 1.94986 7.2
      vertex 1.24698 1.56366 7.2
    endloop
  endfacet
  facet normal -0 0 1
    outer loop
      vertex -0.749525 3.92915 7.2
      vertex -0.445042 1.94986 7.2
      vertex -0.251162 3.99211 7.2
    endloop
  endfacet
  facet normal -0 0 1
    outer loop
      vertex -1.23607 3.80423 7.2
      vertex -0.445042 1.94986 7.2
      vertex -0.749525 3.92915 7.2
    endloop
  endfacet
  facet normal -0 0 1
    outer loop
      vertex -1.70312 3.61931 7.2
      vertex -0.445042 1.94986 7.2
      vertex -1.23607 3.80423 7.2
    endloop
  endfacet
  facet normal -0 0 1
    outer loop
      vertex -2.14331 3.37731 7.2
      vertex -0.445042 1.94986 7.2
      vertex -1.70312 3.61931 7.2
    endloop
  endfacet
  facet normal 0 0 1
    outer loop
      vertex -0.445042 1.94986 7.2
      vertex -2.5497 3.08205 7.2
      vertex -1.80194 0.867767 7.2
    endloop
  endfacet
  facet normal -0 0 1
    outer loop
      vertex -2.5497 3.08205 7.2
      vertex -0.445042 1.94986 7.2
      vertex -2.14331 3.37731 7.2
    endloop
  endfacet
  facet normal 0 0 1
    outer loop
      vertex 2.5497 -3.08205 7.2
      vertex 1.24698 -1.56366 7.2
      vertex 2.14331 -3.37731 7.2
    endloop
  endfacet
  facet normal 0 0 1
    outer loop
      vertex 2.14331 -3.37731 7.2
      vertex 1.24698 -1.56366 7.2
      vertex 1.70312 -3.61931 7.2
    endloop
  endfacet
  facet normal 0 0 1
    outer loop
      vertex 1.24698 -1.56366 7.2
      vertex 1.23607 -3.80423 7.2
      vertex 1.70312 -3.61931 7.2
    endloop
  endfacet
  facet normal 0 0 1
    outer loop
      vertex 1.24698 -1.56366 7.2
      vertex 0.749525 -3.92915 7.2
      vertex 1.23607 -3.80423 7.2
    endloop
  endfacet
  facet normal -0 0 1
    outer loop
      vertex -0.445042 -1.94986 7.2
      vertex 0.749525 -3.92915 7.2
      vertex 1.24698 -1.56366 7.2
    endloop
  endfacet
  facet normal 0 0 1
    outer loop
      vertex 0.749525 -3.92915 7.2
      vertex -0.445042 -1.94986 7.2
      vertex 0.251162 -3.99211 7.2
    endloop
  endfacet
  facet normal 0 0 1
    outer loop
      vertex 0.251162 -3.99211 7.2
      vertex -0.445042 -1.94986 7.2
      vertex -0.251162 -3.99211 7.2
    endloop
  endfacet
  facet normal 0 0 1
    outer loop
      vertex -0.445042 -1.94986 7.2
      vertex -0.749525 -3.92915 7.2
      vertex -0.251162 -3.99211 7.2
    endloop
  endfacet
  facet normal 0 0 1
    outer loop
      vertex -0.445042 -1.94986 7.2
      vertex -1.23607 -3.80423 7.2
      vertex -0.749525 -3.92915 7.2
    endloop
  endfacet
  facet normal 0 0 1
    outer loop
      vertex -0.445042 -1.94986 7.2
      vertex -1.70312 -3.61931 7.2
      vertex -1.23607 -3.80423 7.2
    endloop
  endfacet
  facet normal 0 0 1
    outer loop
      vertex -2.5497 -3.08205 7.2
      vertex -0.445042 -1.94986 7.2
      vertex -1.80194 -0.867767 7.2
    endloop
  endfacet
  facet normal -0 0 1
    outer loop
      vertex -2.91587 2.73819 7.2
      vertex -1.80194 0.867767 7.2
      vertex -2.5497 3.08205 7.2
    endloop
  endfacet
  facet normal 0 0 1
    outer loop
      vertex -0.445042 -1.94986 7.2
      vertex -2.14331 -3.37731 7.2
      vertex -1.70312 -3.61931 7.2
    endloop
  endfacet
  facet normal -0 0 1
    outer loop
      vertex -3.23607 2.35114 7.2
      vertex -1.80194 0.867767 7.2
      vertex -2.91587 2.73819 7.2
    endloop
  endfacet
  facet normal 0 0 1
    outer loop
      vertex -0.445042 -1.94986 7.2
      vertex -2.5497 -3.08205 7.2
      vertex -2.14331 -3.37731 7.2
    endloop
  endfacet
  facet normal -0 0 1
    outer loop
      vertex -3.50523 1.92701 7.2
      vertex -1.80194 0.867767 7.2
      vertex -3.23607 2.35114 7.2
    endloop
  endfacet
  facet normal 0 0 1
    outer loop
      vertex -1.80194 -0.867767 7.2
      vertex -2.91587 -2.73819 7.2
      vertex -2.5497 -3.08205 7.2
    endloop
  endfacet
  facet normal -0 0 1
    outer loop
      vertex -3.71911 1.4725 7.2
      vertex -1.80194 0.867767 7.2
      vertex -3.50523 1.92701 7.2
    endloop
  endfacet
  facet normal 0 0 1
    outer loop
      vertex -1.80194 -0.867767 7.2
      vertex -3.23607 -2.35114 7.2
      vertex -2.91587 -2.73819 7.2
    endloop
  endfacet
  facet normal -0 0 1
    outer loop
      vertex -3.87433 0.994759 7.2
      vertex -1.80194 0.867767 7.2
      vertex -3.71911 1.4725 7.2
    endloop
  endfacet
  facet normal 0 0 1
    outer loop
      vertex -1.80194 -0.867767 7.2
      vertex -3.50523 -1.92701 7.2
      vertex -3.23607 -2.35114 7.2
    endloop
  endfacet
  facet normal 0 0 1
    outer loop
      vertex -3.96846 0.501332 7.2
      vertex -1.80194 0.867767 7.2
      vertex -3.87433 0.994759 7.2
    endloop
  endfacet
  facet normal 0 0 1
    outer loop
      vertex -1.80194 -0.867767 7.2
      vertex -3.71911 -1.4725 7.2
      vertex -3.50523 -1.92701 7.2
    endloop
  endfacet
  facet normal 0 0 1
    outer loop
      vertex -4 0 7.2
      vertex -1.80194 0.867767 7.2
      vertex -3.96846 0.501332 7.2
    endloop
  endfacet
  facet normal 0 0 1
    outer loop
      vertex -1.80194 -0.867767 7.2
      vertex -3.87433 -0.994759 7.2
      vertex -3.71911 -1.4725 7.2
    endloop
  endfacet
  facet normal 0 0 1
    outer loop
      vertex -1.80194 0.867767 7.2
      vertex -4 0 7.2
      vertex -1.80194 -0.867767 7.2
    endloop
  endfacet
  facet normal 0 0 1
    outer loop
      vertex -1.80194 -0.867767 7.2
      vertex -3.96846 -0.501332 7.2
      vertex -3.87433 -0.994759 7.2
    endloop
  endfacet
  facet normal 0 0 1
    outer loop
      vertex -1.80194 -0.867767 7.2
      vertex -4 0 7.2
      vertex -3.96846 -0.501332 7.2
    endloop
  endfacet
  facet normal -0.587785 0.809017 0
    outer loop
      vertex -2.14331 3.37731 0
      vertex -2.5497 3.08205 7.2
      vertex -2.14331 3.37731 7.2
    endloop
  endfacet
  facet normal -0.587785 0.809017 0
    outer loop
      vertex -2.5497 3.08205 7.2
      vertex -2.14331 3.37731 0
      vertex -2.5497 3.08205 0
    endloop
  endfacet
  facet normal -0.125333 0.992115 0
    outer loop
      vertex -0.251162 3.99211 0
      vertex -0.749525 3.92915 7.2
      vertex -0.251162 3.99211 7.2
    endloop
  endfacet
  facet normal -0.125333 0.992115 0
    outer loop
      vertex -0.749525 3.92915 7.2
      vertex -0.251162 3.99211 0
      vertex -0.749525 3.92915 0
    endloop
  endfacet
  facet normal 0.998027 -0.0627918 0
    outer loop
      vertex 3.96846 -0.501332 7.2
      vertex 4 0 0
      vertex 4 0 7.2
    endloop
  endfacet
  facet normal 0.998027 -0.0627918 0
    outer loop
      vertex 4 0 0
      vertex 3.96846 -0.501332 7.2
      vertex 3.96846 -0.501332 0
    endloop
  endfacet
  facet normal 0.770513 -0.637424 0
    outer loop
      vertex 2.91587 -2.73819 7.2
      vertex 3.23607 -2.35114 0
      vertex 3.23607 -2.35114 7.2
    endloop
  endfacet
  facet normal 0.770513 -0.637424 0
    outer loop
      vertex 3.23607 -2.35114 0
      vertex 2.91587 -2.73819 7.2
      vertex 2.91587 -2.73819 0
    endloop
  endfacet
  facet normal 0.951057 -0.309017 0
    outer loop
      vertex 3.71911 -1.4725 7.2
      vertex 3.87433 -0.994759 0
      vertex 3.87433 -0.994759 7.2
    endloop
  endfacet
  facet normal 0.951057 -0.309017 0
    outer loop
      vertex 3.87433 -0.994759 0
      vertex 3.71911 -1.4725 7.2
      vertex 3.71911 -1.4725 0
    endloop
  endfacet
  facet normal 0.982287 -0.187381 0
    outer loop
      vertex 3.87433 -0.994759 7.2
      vertex 3.96846 -0.501332 0
      vertex 3.96846 -0.501332 7.2
    endloop
  endfacet
  facet normal 0.982287 -0.187381 0
    outer loop
      vertex 3.96846 -0.501332 0
      vertex 3.87433 -0.994759 7.2
      vertex 3.87433 -0.994759 0
    endloop
  endfacet
  facet normal -0.770513 -0.637424 0
    outer loop
      vertex -2.91587 -2.73819 0
      vertex -3.23607 -2.35114 7.2
      vertex -3.23607 -2.35114 0
    endloop
  endfacet
  facet normal -0.770513 -0.637424 0
    outer loop
      vertex -3.23607 -2.35114 7.2
      vertex -2.91587 -2.73819 0
      vertex -2.91587 -2.73819 7.2
    endloop
  endfacet
  facet normal 0 0 -1
    outer loop
      vertex 2 0 0
      vertex 4 0 0
      vertex 3.96846 -0.501332 0
    endloop
  endfacet
  facet normal 0 0 -1
    outer loop
      vertex 2 0 0
      vertex 3.96846 -0.501332 0
      vertex 3.87433 -0.994759 0
    endloop
  endfacet
  facet normal 0 0 -1
    outer loop
      vertex 4 0 0
      vertex 2 0 0
      vertex 3.96846 0.501332 0
    endloop
  endfacet
  facet normal 0 0 -1
    outer loop
      vertex 2 0 0
      vertex 3.87433 -0.994759 0
      vertex 3.71911 -1.4725 0
    endloop
  endfacet
  facet normal -0 0 -1
    outer loop
      vertex 3.96846 0.501332 0
      vertex 2 0 0
      vertex 3.87433 0.994759 0
    endloop
  endfacet
  facet normal 0 0 -1
    outer loop
      vertex 2 0 0
      vertex 3.71911 -1.4725 0
      vertex 3.50523 -1.92701 0
    endloop
  endfacet
  facet normal -0 0 -1
    outer loop
      vertex 3.87433 0.994759 0
      vertex 2 0 0
      vertex 3.71911 1.4725 0
    endloop
  endfacet
  facet normal 0 0 -1
    outer loop
      vertex 1.24698 -1.56366 0
      vertex 3.50523 -1.92701 0
      vertex 3.23607 -2.35114 0
    endloop
  endfacet
  facet normal -0 0 -1
    outer loop
      vertex 3.71911 1.4725 0
      vertex 2 0 0
      vertex 3.50523 1.92701 0
    endloop
  endfacet
  facet normal 0 0 -1
    outer loop
      vertex 1.24698 -1.56366 0
      vertex 3.23607 -2.35114 0
      vertex 2.91587 -2.73819 0
    endloop
  endfacet
  facet normal 0 0 -1
    outer loop
      vertex 1.24698 1.56366 0
      vertex 3.50523 1.92701 0
      vertex 2 0 0
    endloop
  endfacet
  facet normal 0 0 -1
    outer loop
      vertex 1.24698 -1.56366 0
      vertex 2.91587 -2.73819 0
      vertex 2.5497 -3.08205 0
    endloop
  endfacet
  facet normal -0 0 -1
    outer loop
      vertex 3.50523 1.92701 0
      vertex 1.24698 1.56366 0
      vertex 3.23607 2.35114 0
    endloop
  endfacet
  facet normal 0 0 -1
    outer loop
      vertex 1.24698 -1.56366 0
      vertex 2.5497 -3.08205 0
      vertex 2.14331 -3.37731 0
    endloop
  endfacet
  facet normal -0 0 -1
    outer loop
      vertex 3.23607 2.35114 0
      vertex 1.24698 1.56366 0
      vertex 2.91587 2.73819 0
    endloop
  endfacet
  facet normal -0 0 -1
    outer loop
      vertex 2.91587 2.73819 0
      vertex 1.24698 1.56366 0
      vertex 2.5497 3.08205 0
    endloop
  endfacet
  facet normal 0 0 -1
    outer loop
      vertex 1.24698 -1.56366 0
      vertex 2.14331 -3.37731 0
      vertex 1.70312 -3.61931 0
    endloop
  endfacet
  facet normal 0 0 -1
    outer loop
      vertex 3.50523 -1.92701 0
      vertex 1.24698 -1.56366 0
      vertex 2 0 0
    endloop
  endfacet
  facet normal 0 0 -1
    outer loop
      vertex 1.23607 -3.80423 0
      vertex 1.24698 -1.56366 0
      vertex 1.70312 -3.61931 0
    endloop
  endfacet
  facet normal 0 0 -1
    outer loop
      vertex 0.749525 -3.92915 0
      vertex 1.24698 -1.56366 0
      vertex 1.23607 -3.80423 0
    endloop
  endfacet
  facet normal 0 0 -1
    outer loop
      vertex -0.445042 -1.94986 0
      vertex 0.749525 -3.92915 0
      vertex 0.251162 -3.99211 0
    endloop
  endfacet
  facet normal 0 0 -1
    outer loop
      vertex -0.445042 -1.94986 0
      vertex 0.251162 -3.99211 0
      vertex -0.251162 -3.99211 0
    endloop
  endfacet
  facet normal 0 0 -1
    outer loop
      vertex 0.749525 -3.92915 0
      vertex -0.445042 -1.94986 0
      vertex 1.24698 -1.56366 0
    endloop
  endfacet
  facet normal 0 0 -1
    outer loop
      vertex -0.749525 -3.92915 0
      vertex -0.445042 -1.94986 0
      vertex -0.251162 -3.99211 0
    endloop
  endfacet
  facet normal 0 0 -1
    outer loop
      vertex -1.23607 -3.80423 0
      vertex -0.445042 -1.94986 0
      vertex -0.749525 -3.92915 0
    endloop
  endfacet
  facet normal 0 0 -1
    outer loop
      vertex -1.70312 -3.61931 0
      vertex -0.445042 -1.94986 0
      vertex -1.23607 -3.80423 0
    endloop
  endfacet
  facet normal 0 0 -1
    outer loop
      vertex -2.14331 -3.37731 0
      vertex -0.445042 -1.94986 0
      vertex -1.70312 -3.61931 0
    endloop
  endfacet
  facet normal -0 0 -1
    outer loop
      vertex -0.445042 -1.94986 0
      vertex -2.5497 -3.08205 0
      vertex -1.80194 -0.867767 0
    endloop
  endfacet
  facet normal 0 0 -1
    outer loop
      vertex -2.5497 -3.08205 0
      vertex -0.445042 -1.94986 0
      vertex -2.14331 -3.37731 0
    endloop
  endfacet
  facet normal -0 0 -1
    outer loop
      vertex 2.5497 3.08205 0
      vertex 1.24698 1.56366 0
      vertex 2.14331 3.37731 0
    endloop
  endfacet
  facet normal -0 0 -1
    outer loop
      vertex 2.14331 3.37731 0
      vertex 1.24698 1.56366 0
      vertex 1.70312 3.61931 0
    endloop
  endfacet
  facet normal 0 0 -1
    outer loop
      vertex 1.24698 1.56366 0
      vertex 1.23607 3.80423 0
      vertex 1.70312 3.61931 0
    endloop
  endfacet
  facet normal 0 0 -1
    outer loop
      vertex 1.24698 1.56366 0
      vertex 0.749525 3.92915 0
      vertex 1.23607 3.80423 0
    endloop
  endfacet
  facet normal 0 0 -1
    outer loop
      vertex -0.445042 1.94986 0
      vertex 0.749525 3.92915 0
      vertex 1.24698 1.56366 0
    endloop
  endfacet
  facet normal -0 0 -1
    outer loop
      vertex 0.749525 3.92915 0
      vertex -0.445042 1.94986 0
      vertex 0.251162 3.99211 0
    endloop
  endfacet
  facet normal -0 0 -1
    outer loop
      vertex 0.251162 3.99211 0
      vertex -0.445042 1.94986 0
      vertex -0.251162 3.99211 0
    endloop
  endfacet
  facet normal 0 0 -1
    outer loop
      vertex -0.445042 1.94986 0
      vertex -0.749525 3.92915 0
      vertex -0.251162 3.99211 0
    endloop
  endfacet
  facet normal 0 0 -1
    outer loop
      vertex -0.445042 1.94986 0
      vertex -1.23607 3.80423 0
      vertex -0.749525 3.92915 0
    endloop
  endfacet
  facet normal 0 0 -1
    outer loop
      vertex -0.445042 1.94986 0
      vertex -1.70312 3.61931 0
      vertex -1.23607 3.80423 0
    endloop
  endfacet
  facet normal 0 0 -1
    outer loop
      vertex -2.5497 3.08205 0
      vertex -0.445042 1.94986 0
      vertex -1.80194 0.867767 0
    endloop
  endfacet
  facet normal 0 0 -1
    outer loop
      vertex -2.91587 -2.73819 0
      vertex -1.80194 -0.867767 0
      vertex -2.5497 -3.08205 0
    endloop
  endfacet
  facet normal 0 0 -1
    outer loop
      vertex -0.445042 1.94986 0
      vertex -2.14331 3.37731 0
      vertex -1.70312 3.61931 0
    endloop
  endfacet
  facet normal 0 0 -1
    outer loop
      vertex -3.23607 -2.35114 0
      vertex -1.80194 -0.867767 0
      vertex -2.91587 -2.73819 0
    endloop
  endfacet
  facet normal 0 0 -1
    outer loop
      vertex -0.445042 1.94986 0
      vertex -2.5497 3.08205 0
      vertex -2.14331 3.37731 0
    endloop
  endfacet
  facet normal 0 0 -1
    outer loop
      vertex -3.50523 -1.92701 0
      vertex -1.80194 -0.867767 0
      vertex -3.23607 -2.35114 0
    endloop
  endfacet
  facet normal 0 0 -1
    outer loop
      vertex -1.80194 0.867767 0
      vertex -2.91587 2.73819 0
      vertex -2.5497 3.08205 0
    endloop
  endfacet
  facet normal 0 0 -1
    outer loop
      vertex -3.71911 -1.4725 0
      vertex -1.80194 -0.867767 0
      vertex -3.50523 -1.92701 0
    endloop
  endfacet
  facet normal 0 0 -1
    outer loop
      vertex -1.80194 0.867767 0
      vertex -3.23607 2.35114 0
      vertex -2.91587 2.73819 0
    endloop
  endfacet
  facet normal 0 0 -1
    outer loop
      vertex -3.87433 -0.994759 0
      vertex -1.80194 -0.867767 0
      vertex -3.71911 -1.4725 0
    endloop
  endfacet
  facet normal 0 0 -1
    outer loop
      vertex -1.80194 0.867767 0
      vertex -3.50523 1.92701 0
      vertex -3.23607 2.35114 0
    endloop
  endfacet
  facet normal 0 0 -1
    outer loop
      vertex -3.96846 -0.501332 0
      vertex -1.80194 -0.867767 0
      vertex -3.87433 -0.994759 0
    endloop
  endfacet
  facet normal 0 0 -1
    outer loop
      vertex -1.80194 0.867767 0
      vertex -3.71911 1.4725 0
      vertex -3.50523 1.92701 0
    endloop
  endfacet
  facet normal 0 0 -1
    outer loop
      vertex -4 0 0
      vertex -1.80194 -0.867767 0
      vertex -3.96846 -0.501332 0
    endloop
  endfacet
  facet normal 0 0 -1
    outer loop
      vertex -1.80194 0.867767 0
      vertex -3.87433 0.994759 0
      vertex -3.71911 1.4725 0
    endloop
  endfacet
  facet normal 0 0 -1
    outer loop
      vertex -1.80194 -0.867767 0
      vertex -4 0 0
      vertex -1.80194 0.867767 0
    endloop
  endfacet
  facet normal -0 0 -1
    outer loop
      vertex -1.80194 0.867767 0
      vertex -3.96846 0.501332 0
      vertex -3.87433 0.994759 0
    endloop
  endfacet
  facet normal 0 0 -1
    outer loop
      vertex -1.80194 0.867767 0
      vertex -4 0 0
      vertex -3.96846 0.501332 0
    endloop
  endfacet
  facet normal 0.844328 -0.535826 0
    outer loop
      vertex 3.23607 -2.35114 7.2
      vertex 3.50523 -1.92701 0
      vertex 3.50523 -1.92701 7.2
    endloop
  endfacet
  facet normal 0.844328 -0.535826 0
    outer loop
      vertex 3.50523 -1.92701 0
      vertex 3.23607 -2.35114 7.2
      vertex 3.23607 -2.35114 0
    endloop
  endfacet
  facet normal -0.951057 -0.309017 0
    outer loop
      vertex -3.71911 -1.4725 0
      vertex -3.87433 -0.994759 7.2
      vertex -3.87433 -0.994759 0
    endloop
  endfacet
  facet normal -0.951057 -0.309017 0
    outer loop
      vertex -3.87433 -0.994759 7.2
      vertex -3.71911 -1.4725 0
      vertex -3.71911 -1.4725 7.2
    endloop
  endfacet
  facet normal 0.24869 -0.968583 0
    outer loop
      vertex 0.749525 -3.92915 0
      vertex 1.23607 -3.80423 7.2
      vertex 0.749525 -3.92915 7.2
    endloop
  endfacet
  facet normal 0.24869 -0.968583 0
    outer loop
      vertex 1.23607 -3.80423 7.2
      vertex 0.749525 -3.92915 0
      vertex 1.23607 -3.80423 0
    endloop
  endfacet
  facet normal 0.684546 -0.72897 0
    outer loop
      vertex 2.5497 -3.08205 0
      vertex 2.91587 -2.73819 7.2
      vertex 2.5497 -3.08205 7.2
    endloop
  endfacet
  facet normal 0.684546 -0.72897 0
    outer loop
      vertex 2.91587 -2.73819 7.2
      vertex 2.5497 -3.08205 0
      vertex 2.91587 -2.73819 0
    endloop
  endfacet
  facet normal 0.587785 -0.809017 0
    outer loop
      vertex 2.14331 -3.37731 0
      vertex 2.5497 -3.08205 7.2
      vertex 2.14331 -3.37731 7.2
    endloop
  endfacet
  facet normal 0.587785 -0.809017 0
    outer loop
      vertex 2.5497 -3.08205 7.2
      vertex 2.14331 -3.37731 0
      vertex 2.5497 -3.08205 0
    endloop
  endfacet
  facet normal 0.481754 -0.876307 0
    outer loop
      vertex 1.70312 -3.61931 0
      vertex 2.14331 -3.37731 7.2
      vertex 1.70312 -3.61931 7.2
    endloop
  endfacet
  facet normal 0.481754 -0.876307 0
    outer loop
      vertex 2.14331 -3.37731 7.2
      vertex 1.70312 -3.61931 0
      vertex 2.14331 -3.37731 0
    endloop
  endfacet
  facet normal -0.125333 -0.992115 0
    outer loop
      vertex -0.749525 -3.92915 0
      vertex -0.251162 -3.99211 7.2
      vertex -0.749525 -3.92915 7.2
    endloop
  endfacet
  facet normal -0.125333 -0.992115 -0
    outer loop
      vertex -0.251162 -3.99211 7.2
      vertex -0.749525 -3.92915 0
      vertex -0.251162 -3.99211 0
    endloop
  endfacet
  facet normal -0.24869 -0.968583 0
    outer loop
      vertex -1.23607 -3.80423 0
      vertex -0.749525 -3.92915 7.2
      vertex -1.23607 -3.80423 7.2
    endloop
  endfacet
  facet normal -0.24869 -0.968583 -0
    outer loop
      vertex -0.749525 -3.92915 7.2
      vertex -1.23607 -3.80423 0
      vertex -0.749525 -3.92915 0
    endloop
  endfacet
  facet normal -0.844328 -0.535826 0
    outer loop
      vertex -3.23607 -2.35114 0
      vertex -3.50523 -1.92701 7.2
      vertex -3.50523 -1.92701 0
    endloop
  endfacet
  facet normal -0.844328 -0.535826 0
    outer loop
      vertex -3.50523 -1.92701 7.2
      vertex -3.23607 -2.35114 0
      vertex -3.23607 -2.35114 7.2
    endloop
  endfacet
  facet normal -0.904827 -0.42578 0
    outer loop
      vertex -3.50523 -1.92701 0
      vertex -3.71911 -1.4725 7.2
      vertex -3.71911 -1.4725 0
    endloop
  endfacet
  facet normal -0.904827 -0.42578 0
    outer loop
      vertex -3.71911 -1.4725 7.2
      vertex -3.50523 -1.92701 0
      vertex -3.50523 -1.92701 7.2
    endloop
  endfacet
  facet normal -0.982287 -0.187381 0
    outer loop
      vertex -3.87433 -0.994759 0
      vertex -3.96846 -0.501332 7.2
      vertex -3.96846 -0.501332 0
    endloop
  endfacet
  facet normal -0.982287 -0.187381 0
    outer loop
      vertex -3.96846 -0.501332 7.2
      vertex -3.87433 -0.994759 0
      vertex -3.87433 -0.994759 7.2
    endloop
  endfacet
  facet normal -0.998027 -0.0627918 0
    outer loop
      vertex -3.96846 -0.501332 0
      vertex -4 0 7.2
      vertex -4 0 0
    endloop
  endfacet
  facet normal -0.998027 -0.0627918 0
    outer loop
      vertex -4 0 7.2
      vertex -3.96846 -0.501332 0
      vertex -3.96846 -0.501332 7.2
    endloop
  endfacet
  facet normal -0.684546 -0.72897 0
    outer loop
      vertex -2.91587 -2.73819 0
      vertex -2.5497 -3.08205 7.2
      vertex -2.91587 -2.73819 7.2
    endloop
  endfacet
  facet normal -0.684546 -0.72897 -0
    outer loop
      vertex -2.5497 -3.08205 7.2
      vertex -2.91587 -2.73819 0
      vertex -2.5497 -3.08205 0
    endloop
  endfacet
  facet normal -0.481754 -0.876307 0
    outer loop
      vertex -2.14331 -3.37731 0
      vertex -1.70312 -3.61931 7.2
      vertex -2.14331 -3.37731 7.2
    endloop
  endfacet
  facet normal -0.481754 -0.876307 -0
    outer loop
      vertex -1.70312 -3.61931 7.2
      vertex -2.14331 -3.37731 0
      vertex -1.70312 -3.61931 0
    endloop
  endfacet
  facet normal -0.587785 -0.809017 0
    outer loop
      vertex -2.5497 -3.08205 0
      vertex -2.14331 -3.37731 7.2
      vertex -2.5497 -3.08205 7.2
    endloop
  endfacet
  facet normal -0.587785 -0.809017 -0
    outer loop
      vertex -2.14331 -3.37731 7.2
      vertex -2.5497 -3.08205 0
      vertex -2.14331 -3.37731 0
    endloop
  endfacet
  facet normal -0.368126 -0.929776 0
    outer loop
      vertex -1.70312 -3.61931 0
      vertex -1.23607 -3.80423 7.2
      vertex -1.70312 -3.61931 7.2
    endloop
  endfacet
  facet normal -0.368126 -0.929776 -0
    outer loop
      vertex -1.23607 -3.80423 7.2
      vertex -1.70312 -3.61931 0
      vertex -1.23607 -3.80423 0
    endloop
  endfacet
  facet normal -0.900969 -0.433884 0
    outer loop
      vertex 2 0 0
      vertex 1.24698 1.56366 7.2
      vertex 1.24698 1.56366 0
    endloop
  endfacet
  facet normal -0.900969 -0.433884 0
    outer loop
      vertex 1.24698 1.56366 7.2
      vertex 2 0 0
      vertex 2 0 7.2
    endloop
  endfacet
  facet normal 1 -0 0
    outer loop
      vertex -1.80194 -0.867767 7.2
      vertex -1.80194 0.867767 0
      vertex -1.80194 0.867767 7.2
    endloop
  endfacet
  facet normal 1 0 0
    outer loop
      vertex -1.80194 0.867767 0
      vertex -1.80194 -0.867767 7.2
      vertex -1.80194 -0.867767 0
    endloop
  endfacet
  facet normal -0.222521 -0.974928 0
    outer loop
      vertex -0.445042 1.94986 0
      vertex 1.24698 1.56366 7.2
      vertex -0.445042 1.94986 7.2
    endloop
  endfacet
  facet normal -0.222521 -0.974928 -0
    outer loop
      vertex 1.24698 1.56366 7.2
      vertex -0.445042 1.94986 0
      vertex 1.24698 1.56366 0
    endloop
  endfacet
  facet normal 0.62349 0.781831 -0
    outer loop
      vertex -0.445042 -1.94986 0
      vertex -1.80194 -0.867767 7.2
      vertex -0.445042 -1.94986 7.2
    endloop
  endfacet
  facet normal 0.62349 0.781831 0
    outer loop
      vertex -1.80194 -0.867767 7.2
      vertex -0.445042 -1.94986 0
      vertex -1.80194 -0.867767 0
    endloop
  endfacet
  facet normal 0.62349 -0.781831 0
    outer loop
      vertex -1.80194 0.867767 0
      vertex -0.445042 1.94986 7.2
      vertex -1.80194 0.867767 7.2
    endloop
  endfacet
  facet normal 0.62349 -0.781831 0
    outer loop
      vertex -0.445042 1.94986 7.2
      vertex -1.80194 0.867767 0
      vertex -0.445042 1.94986 0
    endloop
  endfacet
  facet normal -0.222521 0.974928 0
    outer loop
      vertex 1.24698 -1.56366 0
      vertex -0.445042 -1.94986 7.2
      vertex 1.24698 -1.56366 7.2
    endloop
  endfacet
  facet normal -0.222521 0.974928 0
    outer loop
      vertex -0.445042 -1.94986 7.2
      vertex 1.24698 -1.56366 0
      vertex -0.445042 -1.94986 0
    endloop
  endfacet
  facet normal -0.900969 0.433884 0
    outer loop
      vertex 1.24698 -1.56366 0
      vertex 2 0 7.2
      vertex 2 0 0
    endloop
  endfacet
  facet normal -0.900969 0.433884 0
    outer loop
      vertex 2 0 7.2
      vertex 1.24698 -1.56366 0
      vertex 1.24698 -1.56366 7.2
    endloop
  endfacet
endsolid OpenSCAD_Model
